# AST/ASF file generated using VICON BodyLanguage
# -----------------------------------------------
:version 1.10
:name VICON
:units
  mass 1.0
  length 0.45
  angle deg
:documentation
   .ast/.asf automatically generated from VICON data using
   VICON BodyBuilder and BodyLanguage model FoxedUp or BRILLIANT.MOD
:root
   order TX TY TZ RX RY RZ
   axis XYZ
   position 0 0 0  
   orientation 0 0 0 
:bonedata
  begin
     id 1 
     name lhipjoint
     direction 0.662698 -0.695252 0.27831 
     length 2.53073 
     axis 0 0 0  XYZ
  end
  begin
     id 2 
     name lfemur
     direction 0.34202 -0.939693 0  
     length 7.16147  
     axis 0 0 20  XYZ
    dof rx ry rz
    limits (-160.0 20.0)
           (-70.0 70.0)
           (-60.0 70.0)
  end
  begin
     id 3 
     name ltibia
     direction 0.34202 -0.939693 0   
     length 7.63967   
     axis 0 0 20   XYZ
    dof rx
    limits (-10.0 170.0)
  end
  begin
     id 4 
     name lfoot
     direction 0.0938457 -0.257721 0.961651   
     length 1.89793   
     axis -90 7.62852e-016 20   XYZ
    dof rx rz
    limits (-45.0 90.0)
           (-70.0 20.0)
  end
  begin
     id 5 
     name ltoes
     direction -0.00116841 -0.0030592 0.999995   
     length 0.955649   
     axis -90 7.62852e-016 20   XYZ
    dof rx
    limits (-90.0 20.0)
  end
  begin
     id 6 
     name rhipjoint
     direction -0.649445 -0.705948 0.282592   
     length 2.49238  
     axis 0 0 0  XYZ 
  end
  begin
     id 7 
     name rfemur
     direction -0.34202 -0.939693 0   
     length 6.90728   
     axis 0 0 -20   XYZ
    dof rx ry rz
    limits (-160.0 20.0)
           (-70.0 70.0)
           (-70.0 60.0)
  end
  begin
     id 8 
     name rtibia
     direction -0.34202 -0.939693 0   
     length 7.72868   
     axis 0 0 -20   XYZ
    dof rx
    limits (-10.0 170.0)
 end
 begin
     id 9 
     name rfoot
     direction -0.0920068 -0.252865 0.963117   
     length 1.97476  
     axis -90 -7.62852e-016 -20   XYZ
    dof rx rz
    limits (-45.0 90.0)
           (-20.0 70.0)
  end
  begin
     id 10 
     name rtoes
     direction 0.000391322 0.00230649 0.999997   
     length 0.992641   
     axis -90 -7.62852e-016 -20   XYZ
    dof rx
    limits (-90.0 20.0)
  end
  begin
     id 11 
     name lowerback
     direction -0.00875327 0.998321 -0.0572635   
     length 2.20024   
     axis 0 0 0   XYZ
    dof rx ry rz
    limits (-20.0 45.0)
           (-30.0 30.0)
           (-30.0 30.0)
  end
  begin
     id 12 
     name upperback
     direction 0.00753931 0.999972 -0.000360425   
     length 2.20538   
     axis 0 0 0   XYZ
    dof rx ry rz
    limits (-20.0 45.0)
           (-30.0 30.0)
           (-30.0 30.0)
  end
  begin
     id 13 
     name thorax
     direction 0.0117767 0.999601 0.0256663   
     length 2.21508   
     axis 0 0 0   XYZ
    dof rx ry rz
    limits (-20.0 45.0)
           (-30.0 30.0)
           (-30.0 30.0)
  end
  begin
     id 14 
     name lowerneck
     direction 0.060228 0.994909 0.0807986   
     length 1.7607   
     axis 0 0 0   XYZ
    dof rx ry rz
    limits (-20.0 45.0)
           (-30.0 30.0)
           (-30.0 30.0)
  end
  begin
     id 15 
     name upperneck
     direction -0.0563647 0.959594 -0.275685   
     length 1.75612   
     axis 0 0 0   XYZ
    dof rx ry rz
    limits (-20.0 45.0)
           (-30.0 30.0)
           (-30.0 30.0)
  end
  begin
     id 16
     name head
     direction -0.0161544 0.99458 -0.102714  
     length 1.79288  
     axis 0 0 0   XYZ
    dof rx ry rz
    limits (-20.0 45.0)
           (-30.0 30.0)
           (-30.0 30.0)
  end
  begin
     id 17 
     name lclavicle
     direction 0.93913 0.332189 -0.087669  
     length 3.52087  
     axis 0 0 0   XYZ
    dof ry rz
    limits (-20.0 10.0)
           (0.0 20.0)
  end
  begin
     id 18 
     name lhumerus
     direction 1 -4.48974e-011 -2.70836e-027   
     length 5.35289   
     axis -180 -30 -90   XYZ
    dof rx ry rz
    limits (-60.0 90.0)
           (-90.0 90.0)
           (-90.0 90.0)
  end
  begin
     id 19
     name lradius
     direction 1 -4.48961e-011 -9.76021e-027   
     length 3.27727   
     axis -180 -30 -90   XYZ
    dof rx
    limits (-10.0 170.0)
  end
  begin
     id 20
     name lwrist
     direction 1 -4.49103e-011 -2.23668e-026   
     length 1.63864   
     axis 1.44924e-014 90 90   XYZ
    dof ry
    limits (-180.0 0.0)
 end
  begin
     id 21 
     name lhand
     direction 1 3.0697e-005 0.000161777   
     length 0.54443   
     axis 2.85318e-014 90 90   XYZ
    dof rx rz
    limits (-90.0 90.0)
           (-45.0 45.0)
  end
  begin
     id 22 
     name lfingers
     direction 1 -4.49027e-011 -8.9447e-026   
     length 0.438912   
     axis 5.70628e-014 90 90   XYZ
    dof rx
    limits (0.0 90.0)
  end
  begin
     id 23
     name lthumb
     direction 0.707058 2.6516e-005 0.707156   
     length 0.630274   
     axis -90 45 -3.53137e-014   XYZ
    dof rx rz
    limits (-45.0 45.0)
           (-45.0 45.0)
  end
  begin
     id 24 
     name rclavicle
     direction -0.95274 0.284984 -0.105215   
     length 3.43401  
     axis 0 0 0   XYZ 
    dof ry rz
    limits (-10.0 20.0)
           (-20.0 0.0)
  end
  begin
     id 25 
     name rhumerus
     direction -0.999999 -0.000575019 -0.00106829  
     length 5.52077   
     axis -180 30 90   XYZ
    dof rx ry rz
    limits (-90.0 60.0)
           (-90.0 90.0)
           (-90.0 90.0)
  end
  begin
     id 26 
     name rradius
     direction -1 -4.4879e-011 -6.35415e-027   
     length 3.32364   
     axis -180 30 90   XYZ
    dof rx
    limits (-10.0 170.0)
  end
  begin
     id 27 
     name rwrist
     direction -1 -4.49048e-011 -9.98542e-027   
     length 1.66182   
     axis 6.32482e-015 -90 -90   XYZ
    dof ry
    limits (-180.0 0.0)
  end
  begin
     id 28
     name rhand
     direction -1 -4.48978e-011 -1.99771e-026   
     length 0.732235   
     axis 1.27479e-014 -90 -90   XYZ
    dof rx rz
    limits (-90.0 90.0)
           (-45.0 45.0)
  end
  begin
     id 29
     name rfingers
     direction -1 -4.49144e-011 -3.99245e-026   
     length 0.590347   
     axis 2.5496e-014 -90 -90   XYZ
    dof rx
    limits (0.0 90.0)
  end
  begin
     id 30
     name rthumb
     direction -0.707107 -6.35121e-011 0.707107   
     length 0.847624   
     axis -90 -45 -2.82974e-014   XYZ
    dof rx rz
    limits (-45.0 45.0)
           (-45.0 45.0)
  end
:hierarchy
  begin
    root lhipjoint rhipjoint lowerback
    lhipjoint lfemur
    lfemur ltibia
    ltibia lfoot
    lfoot ltoes
    rhipjoint rfemur
    rfemur rtibia
    rtibia rfoot
    rfoot rtoes
    lowerback upperback
    upperback thorax
    thorax lowerneck lclavicle rclavicle
    lowerneck upperneck
    upperneck head
    lclavicle lhumerus
    lhumerus lradius
    lradius lwrist
    lwrist lhand lthumb
    lhand lfingers
    rclavicle rhumerus
    rhumerus rradius
    rradius rwrist
    rwrist rhand rthumb
    rhand rfingers
  end

#!OML:ASF G:\Work\Work\Patient Classification 1\Elijah\terrain1\Elijah.ASF
:FULLY-SPECIFIED
:DEGREES
3423
root 25.4867 17.4683 -10.3967 723.806 13.8663 -0.167145
lowerback 6.82174 -0.614485 2.43652
upperback 0.723623 -0.531526 2.88098
thorax -3.07408 -0.275142 1.65651
lowerneck -15.634 2.1315 7.48199
upperneck 32.4472 1.07192 -0.574752
head 13.6762 1.35826 -1.34363
rclavicle -3.73715e-014 -3.89618e-014
rhumerus -39.2347 4.28372 -85.5188
rradius 51.6267
rwrist -11.7379
rhand -17.617 22.2421
rfingers 7.12502
rthumb 8.63997 -7.5611
lclavicle -3.73715e-014 -3.89618e-014
lhumerus -43.0561 10.7657 78.7502
lradius 23.8175
lwrist -15.2039
lhand -19.1565 16.2087
lfingers 7.12502
lthumb 7.15409 46.0678
rfemur -15.5065 1.64628 27.3128
rtibia 34.419
rfoot 22.5525 -1.0896
rtoes 43.2227
lfemur -43.4221 9.91827 -19.4666
ltibia 117.283
lfoot -0.808495 -16.209
ltoes -23.7893
3424
root 25.522 17.5178 -10.3243 723.976 13.2249 -0.18173
lowerback 6.83205 -0.50474 2.51121
upperback 0.782522 -0.383055 2.84858
thorax -3.02117 -0.202153 1.56659
lowerneck -15.749 1.89048 7.04977
upperneck 31.9991 0.751778 -0.310986
head 13.4843 1.18736 -1.21467
rclavicle 7.7526e-015 -3.89618e-014
rhumerus -39.0953 4.88902 -85.6187
rradius 52.937
rwrist -12.2373
rhand -16.9014 21.0931
rfingers 7.12502
rthumb 9.33044 -8.68044
lclavicle 7.7526e-015 -3.89618e-014
lhumerus -43.8199 11.9865 77.6458
lradius 22.3076
lwrist -14.5959
lhand -22.6094 11.8847
lfingers 7.12502
lthumb 3.82026 41.8302
rfemur -15.3256 1.60819 27.1595
rtibia 34.0822
rfoot 23.0264 -0.794802
rtoes 41.9079
lfemur -44.7962 9.94573 -20.196
ltibia 117.403
lfoot -1.23597 -15.7073
ltoes -23.247
3425
root 25.5642 17.5803 -10.238 724.102 12.569 -0.126246
lowerback 5.78536 -0.237489 2.60582
upperback 1.43969 -0.0960411 2.80095
thorax -1.76082 -0.0513247 1.42627
lowerneck -15.9963 1.38279 6.10761
upperneck 31.3207 0.0700621 0.338209
head 13.2106 0.844697 -0.904206
rclavicle -2.08724e-014 -3.33958e-014
rhumerus -38.1941 5.23445 -85.4269
rradius 53.7396
rwrist -12.3788
rhand -16.8604 21.1426
rfingers 7.12502
rthumb 9.37007 -8.62912
lclavicle -2.08724e-014 -3.33958e-014
lhumerus -43.6294 12.9 77.1197
lradius 22.0896
lwrist -14.9298
lhand -23.0524 12.4708
lfingers 7.12502
lthumb 3.39253 42.4235
rfemur -14.9472 1.53558 26.9057
rtibia 33.7175
rfoot 23.4474 -0.432753
rtoes 40.4974
lfemur -45.8973 9.81281 -21.0336
ltibia 117.246
lfoot -1.58836 -15.898
ltoes -20.1558
3426
root 25.5668 17.6276 -10.2193 724.523 12.5285 -0.268085
lowerback 6.99545 -0.423595 2.74584
upperback 1.00477 -0.259792 2.80349
thorax -2.88497 -0.142214 1.3764
lowerneck -17.1793 1.46057 5.84588
upperneck 31.8277 0.0885427 0.531676
head 13.6844 0.861444 -0.776936
rclavicle -1.66979e-014 -2.3059e-014
rhumerus -38.2318 6.13995 -85.7434
rradius 54.6022
rwrist -12.1502
rhand -17.0889 21.5797
rfingers 7.12502
rthumb 9.14959 -8.20186
lclavicle -1.66979e-014 -2.3059e-014
lhumerus -44.7615 13.8261 75.9761
lradius 21.9414
lwrist -14.1264
lhand -22.0743 14.3913
lfingers 7.12502
lthumb 4.33704 44.3269
rfemur -15.2625 1.56035 27.0472
rtibia 33.4515
rfoot 23.9024 -0.805707
rtoes 38.8619
lfemur -48.769 9.38799 -21.5451
ltibia 117.462
lfoot -1.28691 -14.733
ltoes -25.5117
3427
root 25.5978 17.671 -10.1476 724.322 11.3576 -0.360138
lowerback 6.849 -0.039047 2.63057
upperback 1.25162 0.222763 2.70569
thorax -2.54966 0.101183 1.29324
lowerneck -16.4546 1.4448 6.29617
upperneck 31.1685 0.0272425 0.431803
head 13.247 0.855138 -0.905925
rclavicle 2.8625e-014 -3.18055e-015
rhumerus -38.3007 6.25241 -85.8658
rradius 55.648
rwrist -11.5749
rhand -16.9551 21.5478
rfingers 7.12502
rthumb 9.27866 -8.22802
lclavicle 2.8625e-014 -3.18055e-015
lhumerus -45.6127 13.7383 75.4088
lradius 21.9617
lwrist -12.5012
lhand -21.7728 17.1374
lfingers 7.12502
lthumb 4.6282 47.0668
rfemur -14.7236 1.76055 27.1069
rtibia 33.0485
rfoot 24.5582 -0.186635
rtoes 37.4727
lfemur -49.5021 10.0917 -21.8352
ltibia 117.191
lfoot -1.51224 -14.2333
ltoes -27.2385
3428
root 25.6239 17.7192 -10.0756 724.268 10.2484 -0.338999
lowerback 7.7752 0.207447 2.68649
upperback 0.744481 0.599366 2.28257
thorax -3.58796 0.274936 0.787776
lowerneck -15.4787 1.51447 7.27131
upperneck 31.0002 -0.043365 0.321277
head 12.9766 0.916632 -1.12917
rclavicle -1.12313e-014 -1.43125e-014
rhumerus -39.3049 6.41285 -86.6499
rradius 56.528
rwrist -10.7846
rhand -17.1976 22.251
rfingers 7.12502
rthumb 9.04471 -7.53512
lclavicle -1.12313e-014 -1.43125e-014
lhumerus -47.3974 12.8492 74.6464
lradius 22.3919
lwrist -10.2536
lhand -21.9704 21.676
lfingers 7.12502
lthumb 4.43739 51.6095
rfemur -14.337 1.95926 27.0352
rtibia 32.7337
rfoot 25.1626 0.368505
rtoes 35.9535
lfemur -50.5137 10.5907 -22.2454
ltibia 116.846
lfoot -3.38272 -15.549
ltoes -22.5698
3429
root 25.6534 17.7622 -10.0053 724.204 9.35753 -0.198273
lowerback 7.6515 0.438277 2.4024
upperback 1.31506 0.858581 2.31643
thorax -2.93086 0.414744 0.956375
lowerneck -16.3735 1.34429 6.72303
upperneck 30.7326 -0.210882 0.337476
head 13.0412 0.773189 -1.05383
rclavicle 4.01545e-014 -1.51076e-014
rhumerus -38.3341 7.10374 -86.4944
rradius 57.0297
rwrist -10.264
rhand -18.2033 23.2361
rfingers 7.12502
rthumb 8.07416 -6.58967
lclavicle 4.01545e-014 -1.51076e-014
lhumerus -47.3635 14.0827 73.9281
lradius 21.7249
lwrist -8.92549
lhand -23.0526 20.979
lfingers 7.12502
lthumb 3.39233 50.9317
rfemur -13.7259 1.88991 26.8214
rtibia 32.1827
rfoot 25.841 0.95536
rtoes 34.2942
lfemur -51.4973 10.6422 -22.7827
ltibia 116.384
lfoot -2.99513 -14.738
ltoes -25.2872
3430
root 25.6872 17.8143 -9.92499 724.15 8.93439 0.165751
lowerback 7.66105 0.70368 2.58019
upperback 1.69562 1.19449 1.72835
thorax -2.52588 0.583508 0.218186
lowerneck -17.1932 1.15379 7.15844
upperneck 30.6468 -0.707179 0.354667
head 13.1653 0.609171 -1.20006
rclavicle 1.15295e-014 7.95139e-016
rhumerus -37.9112 6.46043 -86.9033
rradius 57.7139
rwrist -9.52115
rhand -18.5329 22.7364
rfingers 7.12502
rthumb 7.756 -7.10132
lclavicle 1.15295e-014 7.95139e-016
lhumerus -47.1741 13.2356 73.5413
lradius 21.4868
lwrist -6.6729
lhand -23.6434 22.2693
lfingers 7.12502
lthumb 2.82176 52.2304
rfemur -13.0826 1.66814 26.3478
rtibia 31.7656
rfoot 26.2175 1.29622
rtoes 32.5746
lfemur -52.3379 9.98222 -23.5875
ltibia 115.669
lfoot -4.13685 -15.5285
ltoes -20.8644
3431
root 25.7066 17.8588 -9.8648 724.108 8.21358 -0.278712
lowerback 8.54615 0.654383 2.82433
upperback 1.27779 1.19966 1.76064
thorax -3.44698 0.571235 0.099014
lowerneck -16.7789 1.37045 7.26871
upperneck 30.8529 -0.36764 0.270588
head 13.1781 0.762712 -1.19838
rclavicle -2.8128e-014 1.27222e-014
rhumerus -38.5377 7.37736 -87.4545
rradius 58.3814
rwrist -9.02259
rhand -17.5643 21.6292
rfingers 7.12502
rthumb 8.6908 -8.17187
lclavicle -2.8128e-014 1.27222e-014
lhumerus -48.8787 14.3685 71.6619
lradius 21.0522
lwrist -5.29832
lhand -22.1398 24.8558
lfingers 7.12502
lthumb 4.27374 54.7927
rfemur -12.7399 2.0387 26.8299
rtibia 31.362
rfoot 26.6798 1.32491
rtoes 30.8124
lfemur -53.769 10.198 -23.2504
ltibia 115.101
lfoot -5.11745 -16.7588
ltoes -17.1677
3432
root 25.729 17.8866 -9.80919 724.146 7.41993 -0.788117
lowerback 8.39923 0.818614 2.78788
upperback 1.69687 1.40866 2.16003
thorax -2.93808 0.685038 0.514959
lowerneck -17.802 1.36288 6.69212
upperneck 31.0778 -0.320732 0.337726
head 13.4899 0.732874 -1.06624
rclavicle 3.97569e-016 2.38542e-014
rhumerus -37.5604 8.20586 -87.0362
rradius 58.8306
rwrist -9.16063
rhand -16.1523 20.8518
rfingers 7.12502
rthumb 10.0532 -8.88808
lclavicle 3.97569e-016 2.38542e-014
lhumerus -48.8614 15.4555 71.4289
lradius 20.7579
lwrist -3.94087
lhand -20.4761 22.6686
lfingers 7.12502
lthumb 5.8802 52.567
rfemur -12.4399 2.14042 27.3411
rtibia 30.9118
rfoot 27.3134 1.70184
rtoes 28.9529
lfemur -55.3208 10.4093 -22.8367
ltibia 114.578
lfoot -5.56917 -16.5694
ltoes -17.4777
3433
root 25.7559 17.9208 -9.7428 724.195 6.80687 -0.977593
lowerback 8.14198 1.00288 2.95361
upperback 1.98264 1.64225 2.06339
thorax -2.48912 0.806206 0.305538
lowerneck -18.178 1.15597 6.64709
upperneck 31.1708 -0.678741 0.432967
head 13.5982 0.588732 -1.08088
rclavicle -1.98785e-014 -3.33958e-014
rhumerus -37.1243 8.57751 -87.2653
rradius 58.9975
rwrist -8.10397
rhand -16.9648 20.9528
rfingers 7.12502
rthumb 9.26935 -8.82341
lclavicle -1.98785e-014 -3.33958e-014
lhumerus -48.7968 15.0504 71.5372
lradius 20.6632
lwrist -2.30452
lhand -20.2434 23.1716
lfingers 7.12502
lthumb 6.10479 53.0637
rfemur -12.0199 2.11061 27.4531
rtibia 30.4094
rfoot 27.8366 2.0274
rtoes 27.0736
lfemur -56.6012 10.1884 -22.7562
ltibia 113.892
lfoot -5.78815 -16.3314
ltoes -17.6641
3434
root 25.786 17.9652 -9.66405 724.255 6.71052 -0.661213
lowerback 8.82698 0.890687 2.75941
upperback 1.44549 1.51115 1.71255
thorax -3.42396 0.727109 0.0471137
lowerneck -17.3188 1.07512 7.14365
upperneck 31.3705 -0.803685 0.185321
head 13.493 0.561847 -1.28492
rclavicle -1.95803e-014 -1.43125e-014
rhumerus -38.1208 9.0481 -87.9977
rradius 59.7351
rwrist -7.94927
rhand -16.7502 20.9636
rfingers 7.12502
rthumb 9.47635 -8.80331
lclavicle -1.95803e-014 -1.43125e-014
lhumerus -50.4009 15.5338 69.4823
lradius 20.0173
lwrist -1.6049
lhand -20.5651 19.6805
lfingers 7.12502
lthumb 5.79424 49.5813
rfemur -11.4759 1.76865 27.0024
rtibia 29.8156
rfoot 28.1485 2.17681
rtoes 25.2665
lfemur -57.5979 9.06176 -23.214
ltibia 112.858
lfoot -6.31287 -15.2955
ltoes -19.884
3435
root 25.804 17.9794 -9.61593 724.443 6.78659 -1.13697
lowerback 8.403 0.797152 3.49398
upperback 2.17923 1.41039 1.74904
thorax -2.41229 0.690624 -0.300926
lowerneck -19.0189 1.20299 6.75406
upperneck 31.3495 -0.661153 0.221939
head 13.8565 0.586315 -1.18214
rclavicle 5.56597e-015 1.27222e-014
rhumerus -36.4459 9.41662 -87.7999
rradius 60.2706
rwrist -8.4514
rhand -16.2837 21.7146
rfingers 7.12502
rthumb 9.9265 -8.0314
lclavicle 5.56597e-015 1.27222e-014
lhumerus -49.384 16.839 68.7537
lradius 19.2637
lwrist -1.65201
lhand -20.5395 20.3324
lfingers 7.12502
lthumb 5.81892 50.2325
rfemur -11.4087 1.64051 27.526
rtibia 29.3722
rfoot 28.4646 2.00992
rtoes 23.406
lfemur -59.4161 8.1376 -22.5956
ltibia 112.098
lfoot -7.06796 -15.9412
ltoes -16.4478
3436
root 25.8458 18.0184 -9.51225 724.238 5.58889 -1.17629
lowerback 8.95759 0.867739 2.91351
upperback 1.45998 1.50734 1.90456
thorax -3.48302 0.723478 0.157879
lowerneck -16.4876 1.39436 7.01863
upperneck 31.2082 -0.118389 -0.112523
head 13.268 0.794155 -1.2694
rclavicle -9.93923e-017 -8.74653e-015
rhumerus -38.2388 10.7086 -88.3491
rradius 61.1739
rwrist -9.01865
rhand -15.8702 21.6414
rfingers 7.12502
rthumb 10.3254 -8.08511
lclavicle -9.93923e-017 -8.74653e-015
lhumerus -52.0626 16.9253 67.5946
lradius 19.2134
lwrist -1.01263
lhand -20.641 28.6473
lfingers 7.12502
lthumb 5.72099 58.55
rfemur -10.6538 1.78719 27.4041
rtibia 28.9593
rfoot 28.947 2.73428
rtoes 21.5145
lfemur -59.5934 8.39957 -22.3803
ltibia 110.872
lfoot -7.47656 -16.5078
ltoes -14.6989
3437
root 25.8618 18.0271 -9.47182 724.643 6.03793 -1.29908
lowerback 9.10283 0.660819 3.55869
upperback 2.23704 1.27007 1.81287
thorax -2.74443 0.615945 -0.267223
lowerneck -19.9563 1.45195 6.06949
upperneck 31.6942 -0.211498 0.403941
head 14.2268 0.732715 -0.914199
rclavicle 2.78299e-015 -1.03368e-014
rhumerus -36.0774 10.7844 -87.9675
rradius 61.8056
rwrist -9.34792
rhand -15.2508 20.2781
rfingers 7.12502
rthumb 10.9229 -9.41779
lclavicle 2.78299e-015 -1.03368e-014
lhumerus -50.2974 17.9556 67.6616
lradius 18.5573
lwrist -1.63327
lhand -21.1549 27.2781
lfingers 7.12502
lthumb 5.2248 57.1937
rfemur -10.879 1.44727 27.5421
rtibia 28.6495
rfoot 28.812 2.42301
rtoes 19.9041
lfemur -61.3868 6.81285 -22.0904
ltibia 109.77
lfoot -7.24535 -16.6571
ltoes -13.327
